<?xml version="1.0" encoding="UTF-8" standalone="no"?>
<!DOCTYPE svg PUBLIC "-//W3C//DTD SVG 1.1//EN" "http://www.w3.org/Graphics/SVG/1.1/DTD/svg11.dtd">
<svg width="100%" height="100%" viewBox="0 0 32 32" version="1.1" xmlns="http://www.w3.org/2000/svg" xmlns:xlink="http://www.w3.org/1999/xlink" xml:space="preserve" xmlns:serif="http://www.serif.com/" style="fill-rule:evenodd;clip-rule:evenodd;stroke-linejoin:round;stroke-miterlimit:2;">
    <g transform="matrix(1.22082,0,0,1.20373,-2.72555,-0.846034)">
        <path d="M28.444,7.349L28.444,20.641C28.444,24.309 25.508,27.287 21.891,27.287L8.786,27.287C5.169,27.287 2.233,24.309 2.233,20.641L2.233,7.349C2.233,3.681 5.169,0.703 8.786,0.703L21.891,0.703C25.508,0.703 28.444,3.681 28.444,7.349Z" style="fill:rgb(22,24,29);"/>
    </g>
    <g transform="matrix(0.683253,0,0,0.683253,5.06796,5.06807)">
        <path d="M8.96,12.153L4.343,16L8.96,19.848C9.307,20.132 9.509,20.558 9.509,21.008C9.509,21.831 8.832,22.508 8.009,22.508C7.654,22.508 7.311,22.382 7.04,22.153L1.04,17.153C0.698,16.868 0.5,16.445 0.5,16C0.5,15.555 0.698,15.132 1.04,14.848L7.04,9.848C7.308,9.628 7.644,9.508 7.991,9.508C8.814,9.508 9.491,10.185 9.491,11.008C9.491,11.449 9.296,11.868 8.96,12.152ZM30.96,14.848L24.96,9.848C24.689,9.618 24.346,9.492 23.991,9.492C23.168,9.492 22.491,10.169 22.491,10.992C22.491,11.442 22.693,11.868 23.04,12.153L27.658,16L23.04,19.848C22.693,20.132 22.491,20.558 22.491,21.008C22.491,21.831 23.168,22.508 23.991,22.508C24.346,22.508 24.689,22.382 24.96,22.153L30.96,17.153C31.302,16.868 31.5,16.445 31.5,16C31.5,15.555 31.302,15.132 30.96,14.848ZM20.513,3.59C20.348,3.53 20.175,3.5 20,3.5C19.37,3.5 18.805,3.896 18.59,4.488L10.59,26.488C10.31,27.261 10.715,28.128 11.488,28.409C11.652,28.469 11.825,28.5 12,28.5C12.629,28.5 13.195,28.104 13.41,27.513L21.41,5.512C21.47,5.348 21.5,5.175 21.5,5C21.5,4.37 21.104,3.805 20.513,3.59Z" style="fill:rgb(131,187,88);fill-rule:nonzero;"/>
    </g>
</svg>
